<svg xmlns="http://www.w3.org/2000/svg" xmlns:xlink="http://www.w3.org/1999/xlink" width="500" zoomAndPan="magnify" viewBox="0 0 375 112.499997" height="150" preserveAspectRatio="xMidYMid meet" version="1.0"><defs><g/><clipPath id="61400fb485"><path d="M 12.03125 42 L 18 42 L 18 48 L 12.03125 48 Z M 12.03125 42 " clip-rule="nonzero"/></clipPath><clipPath id="be8dd01432"><path d="M 56.511719 5.65625 L 147.179688 5.65625 L 147.179688 106.253906 L 56.511719 106.253906 Z M 56.511719 5.65625 " clip-rule="nonzero"/></clipPath></defs><path fill="#5271ff" d="M 50.136719 85.1875 L 68.316406 85.1875 C 69.597656 86.46875 70.972656 87.667969 72.417969 88.773438 C 75.496094 91.128906 78.910156 93.054688 82.582031 94.476562 C 86.246094 95.890625 90.171875 96.796875 94.261719 97.113281 C 94.363281 97.121094 94.476562 97.128906 94.585938 97.136719 C 94.800781 97.152344 95.011719 97.160156 95.234375 97.167969 C 95.4375 97.183594 95.652344 97.183594 95.859375 97.191406 C 96.078125 97.199219 96.292969 97.207031 96.503906 97.207031 C 96.71875 97.207031 96.933594 97.214844 97.144531 97.214844 C 97.367188 97.214844 97.585938 97.207031 97.808594 97.207031 C 98.03125 97.207031 98.25 97.199219 98.472656 97.191406 C 98.597656 97.191406 98.726562 97.183594 98.84375 97.175781 C 98.984375 97.175781 99.128906 97.167969 99.269531 97.160156 C 99.671875 97.136719 100.074219 97.113281 100.476562 97.082031 C 100.675781 97.066406 100.882812 97.050781 101.085938 97.027344 C 101.179688 97.019531 101.285156 97.011719 101.386719 96.996094 C 101.550781 96.980469 101.71875 96.964844 101.875 96.949219 C 102.222656 96.910156 102.570312 96.859375 102.910156 96.8125 C 103.011719 96.796875 103.109375 96.78125 103.210938 96.773438 C 103.351562 96.75 103.503906 96.726562 103.644531 96.703125 C 103.867188 96.671875 104.078125 96.640625 104.292969 96.59375 C 104.5 96.5625 104.703125 96.519531 104.910156 96.480469 C 105.089844 96.449219 105.273438 96.410156 105.453125 96.378906 C 105.582031 96.347656 105.707031 96.324219 105.832031 96.300781 C 106.15625 96.230469 106.488281 96.15625 106.804688 96.078125 C 107 96.03125 107.199219 95.984375 107.398438 95.929688 C 107.414062 95.929688 107.429688 95.921875 107.453125 95.914062 C 107.640625 95.867188 107.824219 95.820312 108.011719 95.761719 C 108.21875 95.707031 108.414062 95.652344 108.621094 95.597656 C 108.828125 95.535156 109.023438 95.480469 109.230469 95.414062 C 109.425781 95.351562 109.632812 95.289062 109.828125 95.226562 C 110.027344 95.164062 110.230469 95.101562 110.429688 95.027344 C 110.792969 94.902344 111.15625 94.777344 111.519531 94.632812 C 111.75 94.554688 111.96875 94.46875 112.191406 94.382812 C 112.578125 94.230469 112.964844 94.074219 113.351562 93.90625 C 113.542969 93.828125 113.730469 93.742188 113.921875 93.65625 C 114.109375 93.574219 114.300781 93.488281 114.488281 93.402344 C 114.8125 93.242188 115.144531 93.085938 115.46875 92.929688 C 115.523438 92.902344 115.585938 92.871094 115.640625 92.839844 C 115.996094 92.660156 116.351562 92.46875 116.707031 92.28125 C 116.691406 92.265625 116.667969 92.242188 116.652344 92.226562 C 120.066406 90.417969 123.183594 88.148438 125.941406 85.496094 C 125.980469 85.449219 126.019531 85.417969 126.058594 85.386719 C 133.75 77.914062 138.53125 67.464844 138.53125 55.894531 C 138.53125 34.4375 122.078125 16.816406 101.09375 14.96875 C 100.914062 14.953125 100.730469 14.9375 100.550781 14.921875 C 100.367188 14.90625 100.179688 14.890625 99.988281 14.882812 C 99.964844 14.875 99.941406 14.875 99.910156 14.875 C 99.765625 14.867188 99.625 14.859375 99.484375 14.847656 C 98.9375 14.816406 98.394531 14.792969 97.839844 14.785156 C 97.609375 14.785156 97.382812 14.777344 97.144531 14.777344 C 96.851562 14.777344 96.570312 14.785156 96.277344 14.792969 C 95.992188 14.792969 95.707031 14.800781 95.421875 14.816406 C 95.117188 14.832031 94.808594 14.847656 94.5 14.867188 C 94.261719 14.882812 94.027344 14.898438 93.789062 14.914062 C 93.734375 14.921875 93.6875 14.929688 93.628906 14.929688 C 93.457031 14.945312 93.273438 14.960938 93.101562 14.976562 C 93.046875 14.984375 92.992188 14.992188 92.9375 15 C 92.832031 15.007812 92.738281 15.015625 92.644531 15.023438 C 92.429688 15.046875 92.21875 15.070312 92.011719 15.101562 C 91.726562 15.132812 91.449219 15.171875 91.175781 15.210938 C 90.90625 15.253906 90.652344 15.292969 90.394531 15.332031 C 90.351562 15.339844 90.3125 15.347656 90.273438 15.355469 C 90.019531 15.394531 89.769531 15.441406 89.507812 15.488281 C 89.285156 15.527344 89.066406 15.574219 88.835938 15.625 C 88.765625 15.640625 88.6875 15.648438 88.609375 15.671875 C 88.363281 15.71875 88.117188 15.773438 87.875 15.828125 C 82.1875 17.140625 76.941406 19.628906 72.417969 23.023438 L 39.855469 23.023438 L 39.855469 28.039062 L 44.820312 28.039062 L 44.820312 33.023438 L 36.511719 33.023438 L 36.511719 33.007812 L 34.578125 33.007812 L 34.578125 35.503906 C 34.5625 35.652344 34.5625 35.792969 34.578125 35.945312 L 34.578125 37.972656 L 36.804688 37.972656 C 36.917969 37.992188 37.019531 37.992188 37.136719 37.992188 C 37.246094 37.992188 37.359375 37.992188 37.46875 37.972656 L 85.960938 37.972656 C 85.976562 37.972656 85.992188 37.972656 86.007812 37.972656 C 86.015625 37.980469 86.023438 37.972656 86.03125 37.980469 L 86.046875 37.980469 C 86.066406 37.992188 86.082031 37.992188 86.097656 38 L 86.105469 38 C 86.144531 38.015625 86.175781 38.03125 86.207031 38.0625 C 86.230469 38.078125 86.253906 38.101562 86.269531 38.125 C 86.269531 38.125 86.277344 38.125 86.277344 38.132812 L 86.355469 38.132812 L 86.355469 62.324219 C 86.355469 62.339844 86.355469 62.363281 86.347656 62.386719 C 86.332031 62.488281 86.277344 62.570312 86.214844 62.632812 C 86.207031 62.632812 86.207031 62.632812 86.207031 62.632812 C 86.175781 62.65625 86.144531 62.679688 86.105469 62.6875 L 86.097656 62.695312 C 86.082031 62.703125 86.066406 62.703125 86.046875 62.703125 L 86.039062 62.710938 L 86.03125 62.710938 C 86.015625 62.710938 86 62.710938 85.984375 62.710938 C 85.976562 62.710938 85.96875 62.71875 85.960938 62.71875 L 85.078125 62.71875 L 85.078125 62.890625 L 35.082031 62.890625 L 35.042969 62.882812 L 34.539062 62.882812 C 34.523438 62.882812 34.515625 62.890625 34.5 62.890625 L 31.703125 62.890625 L 31.703125 65.386719 C 31.6875 65.546875 31.6875 65.710938 31.703125 65.863281 L 31.703125 67.875 L 33.929688 67.875 C 34.035156 67.882812 34.144531 67.890625 34.261719 67.890625 C 34.363281 67.890625 34.484375 67.890625 34.59375 67.875 L 44.933594 67.875 C 44.09375 69.035156 43.605469 70.449219 43.605469 71.984375 L 39.570312 71.984375 L 39.570312 76.964844 L 47.5625 76.964844 C 46.742188 76.460938 46.054688 75.757812 45.5625 74.921875 C 45.066406 74.050781 44.78125 73.050781 44.78125 71.984375 C 44.78125 70.378906 45.421875 68.933594 46.457031 67.875 C 46.660156 67.664062 46.882812 67.464844 47.121094 67.292969 C 48.097656 66.550781 49.324219 66.113281 50.644531 66.113281 C 50.730469 66.113281 50.816406 66.121094 50.902344 66.121094 C 52.128906 66.179688 53.25 66.605469 54.15625 67.292969 C 54.234375 67.347656 54.308594 67.402344 54.378906 67.464844 C 54.535156 67.589844 54.6875 67.734375 54.820312 67.875 C 55.863281 68.925781 56.503906 70.378906 56.503906 71.984375 C 56.503906 72.417969 56.457031 72.835938 56.367188 73.246094 C 56.234375 73.839844 56.019531 74.398438 55.722656 74.921875 C 55.382812 75.488281 54.953125 76.011719 54.449219 76.429688 C 53.429688 77.3125 52.097656 77.84375 50.644531 77.84375 C 50.53125 77.84375 50.429688 77.84375 50.320312 77.835938 L 50.320312 81.082031 L 46.078125 81.082031 C 46.046875 81.089844 46.007812 81.097656 45.976562 81.097656 C 45.933594 81.097656 45.894531 81.089844 45.863281 81.082031 L 45.128906 81.082031 L 45.128906 85.1875 Z M 116.699219 71.984375 L 109.664062 71.984375 C 109.664062 70.472656 109.191406 69.070312 108.382812 67.921875 C 107.152344 66.1875 105.152344 65.023438 102.878906 64.945312 C 102.792969 64.945312 102.714844 64.945312 102.625 64.945312 C 100.566406 64.945312 98.71875 65.832031 97.429688 67.242188 C 96.285156 68.492188 95.589844 70.160156 95.589844 71.984375 L 57.632812 71.984375 L 57.679688 71.984375 C 57.679688 70.449219 57.191406 69.035156 56.359375 67.875 L 90.90625 67.875 L 90.90625 37.972656 L 102.816406 37.972656 C 103.644531 37.992188 104.457031 38.09375 105.242188 38.265625 C 110.460938 39.453125 114.355469 44.125 114.355469 49.703125 L 114.355469 67.292969 C 115.648438 67.292969 116.699219 68.34375 116.699219 69.636719 Z M 106.566406 76.320312 C 106.496094 76.390625 106.425781 76.445312 106.355469 76.507812 C 105.359375 77.328125 104.085938 77.828125 102.699219 77.84375 C 102.699219 77.84375 102.699219 77.84375 102.691406 77.84375 L 102.625 77.84375 C 100.460938 77.84375 98.566406 76.667969 97.554688 74.921875 C 97.507812 74.839844 97.46875 74.769531 97.429688 74.691406 C 97.003906 73.878906 96.765625 72.953125 96.765625 71.984375 C 96.765625 71.003906 97.003906 70.078125 97.429688 69.265625 C 98.410156 67.394531 100.367188 66.113281 102.625 66.113281 C 102.785156 66.113281 102.949219 66.121094 103.101562 66.136719 C 105.382812 66.320312 107.300781 67.8125 108.089844 69.859375 C 108.351562 70.515625 108.496094 71.234375 108.496094 71.984375 C 108.496094 73.695312 107.753906 75.246094 106.566406 76.320312 " fill-opacity="1" fill-rule="evenodd"/><path fill="#5271ff" d="M 24.636719 32.992188 L 19.667969 32.992188 L 19.667969 37.972656 L 24.636719 37.972656 L 24.636719 32.992188 " fill-opacity="1" fill-rule="evenodd"/><g clip-path="url(#61400fb485)"><path fill="#5271ff" d="M 12.03125 47.933594 L 17.003906 47.933594 L 17.003906 42.949219 L 12.03125 42.949219 L 12.03125 47.933594 " fill-opacity="1" fill-rule="evenodd"/></g><path fill="#5271ff" d="M 21.761719 67.875 L 26.734375 67.875 L 26.734375 62.890625 L 21.761719 62.890625 L 21.761719 67.875 " fill-opacity="1" fill-rule="evenodd"/><path fill="#5271ff" d="M 53.574219 71.984375 C 53.574219 70.363281 52.261719 69.050781 50.644531 69.050781 C 49.023438 69.050781 47.710938 70.363281 47.710938 71.984375 C 47.710938 73.601562 49.023438 74.914062 50.644531 74.914062 C 52.261719 74.914062 53.574219 73.601562 53.574219 71.984375 " fill-opacity="1" fill-rule="evenodd"/><path fill="#5271ff" d="M 34.886719 28.007812 L 34.886719 23.023438 L 34.460938 23.023438 L 34.339844 23.039062 L 31.703125 23.039062 L 31.703125 23.054688 L 29.910156 23.054688 L 29.910156 28.039062 L 34.886719 28.039062 L 34.886719 28.007812 " fill-opacity="1" fill-rule="evenodd"/><path fill="#5271ff" d="M 21.972656 47.933594 L 33.867188 47.933594 L 33.867188 42.964844 L 21.972656 42.964844 L 21.972656 47.933594 " fill-opacity="1" fill-rule="evenodd"/><path fill="#5271ff" d="M 104.648438 41.742188 C 104.472656 41.703125 104.308594 41.664062 104.136719 41.632812 C 103.652344 41.542969 103.148438 41.496094 102.625 41.496094 L 94.421875 41.496094 L 94.421875 54.101562 L 110.839844 54.101562 L 110.839844 49.703125 C 110.839844 47.4375 109.917969 45.382812 108.429688 43.898438 C 107.40625 42.871094 106.101562 42.113281 104.648438 41.742188 " fill-opacity="1" fill-rule="evenodd"/><path fill="#5271ff" d="M 103.851562 69.3125 C 103.574219 69.1875 103.273438 69.109375 102.964844 69.070312 C 102.957031 69.070312 102.957031 69.070312 102.949219 69.070312 C 102.886719 69.058594 102.824219 69.058594 102.761719 69.058594 C 102.714844 69.050781 102.671875 69.050781 102.625 69.050781 C 101.007812 69.050781 99.695312 70.363281 99.695312 71.984375 C 99.695312 73.601562 101.007812 74.914062 102.625 74.914062 C 103.707031 74.914062 104.640625 74.335938 105.152344 73.476562 C 105.414062 73.03125 105.5625 72.527344 105.5625 71.984375 C 105.5625 70.796875 104.863281 69.777344 103.851562 69.3125 " fill-opacity="1" fill-rule="evenodd"/><path fill="#5271ff" d="M 29.59375 76.964844 L 34.578125 76.964844 L 34.578125 71.984375 L 29.59375 71.984375 L 29.59375 76.964844 " fill-opacity="1" fill-rule="evenodd"/><path fill="#5271ff" d="M 38.84375 57.910156 L 38.84375 52.941406 L 28.882812 52.941406 L 28.882812 57.925781 L 38.84375 57.925781 L 38.84375 57.910156 " fill-opacity="1" fill-rule="evenodd"/><g clip-path="url(#be8dd01432)"><path fill="#333333" d="M 147.496094 55.996094 C 147.496094 42.214844 141.933594 29.722656 132.9375 20.613281 L 132.96875 20.613281 L 132.304688 19.992188 L 131.855469 19.566406 C 131.570312 19.28125 131.28125 19.011719 130.980469 18.742188 C 130.980469 18.742188 130.972656 18.734375 130.964844 18.734375 C 130.515625 18.324219 130.0625 17.921875 129.597656 17.535156 C 128.214844 16.359375 126.769531 15.269531 125.277344 14.257812 C 124.789062 13.925781 124.28125 13.601562 123.785156 13.285156 C 123.769531 13.277344 123.761719 13.269531 123.753906 13.269531 C 123.003906 12.796875 122.246094 12.355469 121.472656 11.917969 C 119.9375 11.074219 118.367188 10.308594 116.753906 9.628906 C 116.746094 9.621094 116.730469 9.613281 116.722656 9.605469 C 116.195312 9.382812 115.65625 9.171875 115.121094 8.964844 C 114.851562 8.863281 114.574219 8.761719 114.300781 8.65625 C 114.285156 8.648438 114.277344 8.648438 114.269531 8.640625 C 113.722656 8.445312 113.171875 8.261719 112.617188 8.082031 C 112.046875 7.898438 111.480469 7.726562 110.910156 7.566406 C 110.714844 7.503906 110.515625 7.449219 110.320312 7.402344 C 110.113281 7.347656 109.917969 7.292969 109.710938 7.234375 C 109.511719 7.1875 109.316406 7.132812 109.109375 7.085938 C 107.933594 6.800781 106.742188 6.558594 105.539062 6.351562 C 105.414062 6.328125 105.289062 6.3125 105.160156 6.289062 C 105.042969 6.273438 104.925781 6.25 104.804688 6.234375 C 104.59375 6.203125 104.386719 6.167969 104.175781 6.136719 C 104.039062 6.121094 103.90625 6.097656 103.765625 6.082031 C 103.566406 6.058594 103.367188 6.035156 103.171875 6.011719 C 102.972656 5.988281 102.777344 5.964844 102.570312 5.941406 C 102.351562 5.917969 102.128906 5.894531 101.898438 5.878906 C 101.726562 5.855469 101.550781 5.839844 101.378906 5.832031 C 100.9375 5.789062 100.5 5.757812 100.058594 5.734375 C 99.902344 5.726562 99.734375 5.71875 99.570312 5.710938 C 99.371094 5.703125 99.167969 5.6875 98.960938 5.6875 C 98.765625 5.671875 98.566406 5.671875 98.363281 5.664062 C 97.957031 5.65625 97.546875 5.648438 97.144531 5.648438 C 96.835938 5.648438 96.519531 5.65625 96.214844 5.664062 C 96.15625 5.664062 96.117188 5.664062 96.070312 5.664062 C 95.777344 5.671875 95.496094 5.671875 95.203125 5.6875 C 95.15625 5.6875 95.109375 5.6875 95.058594 5.695312 C 94.785156 5.703125 94.5 5.71875 94.222656 5.734375 C 94.160156 5.742188 94.105469 5.742188 94.050781 5.742188 C 93.789062 5.757812 93.527344 5.773438 93.273438 5.796875 C 93.164062 5.804688 93.046875 5.8125 92.9375 5.820312 C 92.746094 5.839844 92.574219 5.855469 92.390625 5.878906 C 92.257812 5.886719 92.128906 5.902344 92.003906 5.910156 C 91.796875 5.933594 91.585938 5.957031 91.371094 5.980469 C 91.167969 6.003906 90.953125 6.027344 90.738281 6.050781 C 90.535156 6.082031 90.320312 6.105469 90.117188 6.136719 C 83.957031 6.992188 78.054688 8.980469 72.628906 12.03125 C 72.457031 12.125 72.273438 12.226562 72.101562 12.332031 C 71.761719 12.527344 71.421875 12.734375 71.082031 12.9375 C 70.71875 13.160156 70.355469 13.386719 69.992188 13.617188 C 69.859375 13.703125 69.730469 13.785156 69.597656 13.878906 C 69.375 14.011719 69.164062 14.164062 68.949219 14.3125 C 68.917969 14.328125 68.894531 14.34375 68.871094 14.359375 L 62.339844 16.585938 L 73.640625 16.585938 L 73.785156 16.5 C 74.003906 16.367188 74.226562 16.238281 74.445312 16.113281 C 74.867188 15.867188 75.285156 15.640625 75.71875 15.410156 C 75.980469 15.269531 76.246094 15.132812 76.515625 15 C 76.894531 14.800781 77.273438 14.621094 77.652344 14.445312 C 77.9375 14.3125 78.222656 14.179688 78.515625 14.050781 C 78.554688 14.027344 78.601562 14.003906 78.648438 13.988281 C 78.910156 13.878906 79.160156 13.757812 79.421875 13.65625 C 79.707031 13.53125 80 13.421875 80.285156 13.300781 C 80.300781 13.292969 80.308594 13.292969 80.324219 13.285156 C 80.621094 13.167969 80.921875 13.058594 81.222656 12.9375 C 81.53125 12.828125 81.832031 12.726562 82.140625 12.613281 C 83.964844 11.984375 85.828125 11.46875 87.722656 11.066406 C 87.722656 11.066406 87.730469 11.066406 87.738281 11.066406 C 88.324219 10.941406 88.914062 10.828125 89.507812 10.734375 C 89.601562 10.710938 89.699219 10.695312 89.800781 10.679688 C 90.0625 10.640625 90.328125 10.601562 90.605469 10.5625 C 90.636719 10.554688 90.675781 10.546875 90.707031 10.546875 C 91 10.503906 91.285156 10.464844 91.570312 10.433594 C 91.894531 10.394531 92.21875 10.355469 92.539062 10.324219 C 92.792969 10.300781 93.046875 10.277344 93.308594 10.253906 C 93.789062 10.214844 94.277344 10.183594 94.769531 10.148438 C 94.996094 10.140625 95.21875 10.132812 95.445312 10.125 C 95.589844 10.117188 95.730469 10.109375 95.875 10.109375 C 96.054688 10.101562 96.246094 10.101562 96.425781 10.09375 C 96.664062 10.09375 96.902344 10.09375 97.144531 10.09375 C 97.476562 10.09375 97.808594 10.09375 98.132812 10.101562 C 98.457031 10.109375 98.773438 10.117188 99.097656 10.132812 C 99.121094 10.132812 99.144531 10.132812 99.175781 10.132812 C 99.5 10.148438 99.816406 10.167969 100.128906 10.191406 C 100.453125 10.214844 100.769531 10.238281 101.09375 10.261719 C 109.238281 10.972656 117.101562 13.863281 123.769531 18.617188 C 124.046875 18.8125 124.320312 19.019531 124.597656 19.226562 C 124.613281 19.242188 124.621094 19.25 124.636719 19.257812 C 125.167969 19.652344 125.679688 20.054688 126.195312 20.480469 L 126.359375 20.613281 L 126.367188 20.613281 C 136.554688 29.042969 143.054688 41.773438 143.054688 55.996094 C 143.054688 72.726562 134.066406 87.382812 120.664062 95.414062 L 120.65625 95.414062 L 120.507812 95.496094 C 118.691406 96.578125 116.804688 97.523438 114.867188 98.339844 C 113.628906 98.859375 112.378906 99.324219 111.101562 99.726562 C 110.554688 99.902344 110.011719 100.066406 109.457031 100.226562 C 108.753906 100.414062 108.050781 100.597656 107.339844 100.761719 C 107.277344 100.769531 107.222656 100.785156 107.167969 100.800781 C 107 100.832031 106.84375 100.875 106.679688 100.90625 C 106.324219 100.984375 105.976562 101.054688 105.613281 101.117188 C 105.597656 101.117188 105.574219 101.125 105.546875 101.125 C 105.21875 101.195312 104.878906 101.253906 104.546875 101.308594 C 104.117188 101.371094 103.699219 101.433594 103.28125 101.496094 C 102.777344 101.558594 102.261719 101.617188 101.757812 101.671875 C 101.503906 101.695312 101.253906 101.726562 100.992188 101.742188 C 100.5 101.78125 100.011719 101.820312 99.523438 101.84375 C 99.300781 101.851562 99.074219 101.859375 98.851562 101.875 C 98.699219 101.875 98.566406 101.882812 98.417969 101.882812 C 98.234375 101.890625 98.054688 101.890625 97.871094 101.898438 C 97.628906 101.898438 97.390625 101.898438 97.144531 101.898438 C 96.8125 101.898438 96.488281 101.898438 96.15625 101.890625 C 95.835938 101.882812 95.519531 101.875 95.195312 101.859375 C 95.171875 101.859375 95.148438 101.859375 95.125 101.859375 C 94.800781 101.84375 94.476562 101.828125 94.160156 101.804688 C 93.835938 101.78125 93.519531 101.757812 93.203125 101.734375 C 85.773438 101.085938 78.585938 98.621094 72.320312 94.59375 C 71.894531 94.316406 71.476562 94.042969 71.058594 93.75 C 70.59375 93.425781 70.140625 93.101562 69.699219 92.769531 C 69.683594 92.761719 69.667969 92.753906 69.660156 92.738281 C 69.390625 92.539062 69.132812 92.34375 68.871094 92.136719 C 68.609375 91.933594 68.359375 91.726562 68.097656 91.523438 C 68.042969 91.476562 67.984375 91.425781 67.929688 91.378906 L 56.636719 91.378906 L 64.039062 93.898438 L 64.046875 93.898438 C 64.257812 94.089844 64.472656 94.277344 64.691406 94.460938 C 65.308594 94.980469 65.933594 95.488281 66.574219 95.976562 C 66.863281 96.199219 67.15625 96.417969 67.449219 96.632812 C 67.640625 96.773438 67.835938 96.910156 68.027344 97.050781 C 68.695312 97.523438 69.375 97.984375 70.0625 98.433594 C 70.734375 98.859375 71.414062 99.277344 72.109375 99.671875 C 74.589844 101.09375 77.179688 102.3125 79.855469 103.289062 C 80.046875 103.359375 80.242188 103.425781 80.433594 103.496094 C 80.648438 103.566406 80.859375 103.644531 81.082031 103.714844 C 81.398438 103.828125 81.710938 103.929688 82.027344 104.023438 C 82.125 104.054688 82.210938 104.078125 82.296875 104.109375 C 82.660156 104.222656 83.015625 104.324219 83.378906 104.433594 C 84.175781 104.65625 84.984375 104.871094 85.789062 105.050781 C 87.003906 105.335938 88.246094 105.574219 89.492188 105.761719 C 89.699219 105.792969 89.902344 105.824219 90.117188 105.855469 C 90.304688 105.878906 90.496094 105.902344 90.683594 105.929688 C 90.828125 105.953125 90.976562 105.96875 91.121094 105.984375 C 91.324219 106.015625 91.523438 106.03125 91.71875 106.054688 C 92.050781 106.09375 92.382812 106.117188 92.722656 106.148438 C 92.910156 106.164062 93.09375 106.179688 93.273438 106.195312 C 93.589844 106.21875 93.914062 106.242188 94.230469 106.257812 C 94.398438 106.265625 94.554688 106.285156 94.71875 106.285156 C 94.925781 106.300781 95.125 106.308594 95.328125 106.308594 C 95.714844 106.324219 96.101562 106.339844 96.496094 106.339844 C 96.710938 106.347656 96.933594 106.347656 97.144531 106.347656 C 97.460938 106.347656 97.769531 106.339844 98.085938 106.339844 C 98.132812 106.339844 98.179688 106.339844 98.226562 106.332031 C 98.519531 106.324219 98.804688 106.324219 99.089844 106.308594 C 99.144531 106.308594 99.183594 106.308594 99.230469 106.300781 C 99.515625 106.292969 99.792969 106.273438 100.074219 106.257812 C 100.128906 106.257812 100.1875 106.257812 100.242188 106.25 C 100.5 106.234375 100.761719 106.21875 101.015625 106.195312 C 101.132812 106.1875 101.253906 106.179688 101.363281 106.171875 C 101.542969 106.15625 101.726562 106.140625 101.90625 106.117188 C 102.035156 106.109375 102.160156 106.09375 102.285156 106.085938 C 102.5 106.0625 102.707031 106.039062 102.917969 106.015625 C 103.132812 105.992188 103.34375 105.96875 103.550781 105.9375 C 104.160156 105.863281 104.757812 105.777344 105.351562 105.675781 C 110.253906 104.878906 114.988281 103.359375 119.425781 101.140625 C 119.441406 101.140625 119.457031 101.132812 119.472656 101.125 C 119.984375 100.867188 120.507812 100.597656 121.019531 100.320312 C 121.195312 100.226562 121.367188 100.128906 121.542969 100.027344 C 121.808594 99.886719 122.070312 99.734375 122.332031 99.578125 C 122.625 99.410156 122.925781 99.238281 123.207031 99.058594 C 123.390625 98.953125 123.570312 98.84375 123.753906 98.726562 C 123.996094 98.566406 124.25 98.410156 124.496094 98.25 C 124.503906 98.25 124.511719 98.242188 124.519531 98.234375 C 124.773438 98.070312 125.023438 97.902344 125.277344 97.738281 C 125.300781 97.722656 125.324219 97.699219 125.347656 97.683594 C 125.625 97.492188 125.902344 97.304688 126.179688 97.113281 C 126.453125 96.917969 126.722656 96.71875 127 96.511719 L 127.347656 96.261719 L 128.492188 95.414062 L 128.4375 95.414062 C 140.046875 86.183594 147.496094 71.941406 147.496094 55.996094 " fill-opacity="1" fill-rule="evenodd"/></g><g fill="#292929" fill-opacity="1"><g transform="translate(168.320211, 65.823807)"><g><path d="M 8.359375 -5.078125 L 18.40625 -5.078125 L 18.40625 0 L 2.875 0 L 2.875 -25.203125 L 18 -25.203125 L 18 -20.171875 L 8.359375 -20.171875 L 8.359375 -15.203125 L 17.078125 -15.203125 L 17.078125 -10.265625 L 8.359375 -10.265625 Z M 8.359375 -5.078125 "/></g></g></g><g fill="#292929" fill-opacity="1"><g transform="translate(187.731199, 65.823807)"><g><path d="M 19.625 0 L 17.859375 -4.796875 L 7.8125 -4.796875 L 6.09375 0 L 0.328125 0 L 10.1875 -25.203125 L 15.34375 -25.203125 L 25.53125 0 Z M 12.828125 -18.546875 L 9.546875 -9.546875 L 16.140625 -9.546875 Z M 12.828125 -18.546875 "/></g></g></g><g fill="#292929" fill-opacity="1"><g transform="translate(212.868293, 65.823807)"><g><path d="M 11.234375 0.5 C 9.316406 0.5 7.625 0.15625 6.15625 -0.53125 C 4.695312 -1.226562 3.550781 -2.222656 2.71875 -3.515625 C 1.894531 -4.816406 1.484375 -6.367188 1.484375 -8.171875 L 6.984375 -8.171875 C 6.984375 -6.953125 7.410156 -6.046875 8.265625 -5.453125 C 9.117188 -4.867188 10.097656 -4.578125 11.203125 -4.578125 C 11.898438 -4.578125 12.550781 -4.691406 13.15625 -4.921875 C 13.769531 -5.148438 14.273438 -5.484375 14.671875 -5.921875 C 15.066406 -6.367188 15.265625 -6.90625 15.265625 -7.53125 C 15.265625 -8.175781 15.035156 -8.679688 14.578125 -9.046875 C 14.128906 -9.421875 13.519531 -9.726562 12.75 -9.96875 C 11.976562 -10.21875 11.140625 -10.445312 10.234375 -10.65625 C 9.296875 -10.875 8.332031 -11.140625 7.34375 -11.453125 C 6.363281 -11.765625 5.453125 -12.175781 4.609375 -12.6875 C 3.765625 -13.207031 3.09375 -13.90625 2.59375 -14.78125 C 2.09375 -15.65625 1.84375 -16.765625 1.84375 -18.109375 C 1.84375 -20.535156 2.660156 -22.398438 4.296875 -23.703125 C 5.941406 -25.015625 8.171875 -25.671875 10.984375 -25.671875 C 13.867188 -25.671875 16.101562 -24.945312 17.6875 -23.5 C 19.269531 -22.050781 20.0625 -20.078125 20.0625 -17.578125 L 14.65625 -17.578125 C 14.65625 -18.660156 14.269531 -19.457031 13.5 -19.96875 C 12.738281 -20.488281 11.851562 -20.75 10.84375 -20.75 C 9.957031 -20.75 9.140625 -20.554688 8.390625 -20.171875 C 7.648438 -19.785156 7.28125 -19.1875 7.28125 -18.375 C 7.28125 -17.769531 7.5 -17.289062 7.9375 -16.9375 C 8.382812 -16.59375 8.972656 -16.304688 9.703125 -16.078125 C 10.429688 -15.847656 11.242188 -15.628906 12.140625 -15.421875 C 13.097656 -15.171875 14.082031 -14.882812 15.09375 -14.5625 C 16.101562 -14.238281 17.039062 -13.800781 17.90625 -13.25 C 18.769531 -12.695312 19.46875 -11.960938 20 -11.046875 C 20.539062 -10.140625 20.8125 -8.988281 20.8125 -7.59375 C 20.8125 -5.769531 20.375 -4.257812 19.5 -3.0625 C 18.625 -1.863281 17.460938 -0.96875 16.015625 -0.375 C 14.578125 0.207031 12.984375 0.5 11.234375 0.5 Z M 11.234375 0.5 "/></g></g></g><g fill="#292929" fill-opacity="1"><g transform="translate(234.440076, 65.823807)"><g><path d="M 23.875 -25.203125 L 15.015625 -10.1875 L 15.015625 0 L 9.40625 0 L 9.40625 -10.234375 L 0.609375 -25.203125 L 6.40625 -25.203125 L 12.25 -15.125 L 18.078125 -25.203125 Z M 23.875 -25.203125 "/></g></g></g><g fill="#292929" fill-opacity="1"><g transform="translate(258.172653, 65.823807)"><g><path d="M 20.28125 -25.203125 L 20.28125 -20.125 L 13.25 -20.125 L 13.25 0 L 7.78125 0 L 7.78125 -20.125 L 0.796875 -20.125 L 0.796875 -25.203125 Z M 20.28125 -25.203125 "/></g></g></g><g fill="#292929" fill-opacity="1"><g transform="translate(278.483967, 65.823807)"><g><path d="M 16.75 0 L 11.84375 -8.609375 L 8.359375 -8.609375 L 8.359375 0 L 2.875 0 L 2.875 -25.203125 L 13.078125 -25.203125 C 14.753906 -25.203125 16.253906 -24.84375 17.578125 -24.125 C 18.898438 -23.40625 19.941406 -22.421875 20.703125 -21.171875 C 21.472656 -19.921875 21.859375 -18.484375 21.859375 -16.859375 C 21.859375 -15.222656 21.441406 -13.757812 20.609375 -12.46875 C 19.785156 -11.1875 18.675781 -10.210938 17.28125 -9.546875 L 22.875 0 Z M 8.359375 -20.171875 L 8.359375 -13.65625 L 12.71875 -13.65625 C 13.84375 -13.65625 14.726562 -13.957031 15.375 -14.5625 C 16.019531 -15.175781 16.34375 -15.953125 16.34375 -16.890625 C 16.34375 -17.847656 16.019531 -18.632812 15.375 -19.25 C 14.726562 -19.863281 13.84375 -20.171875 12.71875 -20.171875 Z M 8.359375 -20.171875 "/></g></g></g><g fill="#292929" fill-opacity="1"><g transform="translate(301.568303, 65.823807)"><g><path d="M 19.625 0 L 17.859375 -4.796875 L 7.8125 -4.796875 L 6.09375 0 L 0.328125 0 L 10.1875 -25.203125 L 15.34375 -25.203125 L 25.53125 0 Z M 12.828125 -18.546875 L 9.546875 -9.546875 L 16.140625 -9.546875 Z M 12.828125 -18.546875 "/></g></g></g><g fill="#292929" fill-opacity="1"><g transform="translate(326.705391, 65.823807)"><g><path d="M 18.875 -25.203125 L 24.203125 -25.203125 L 24.203125 0 L 19.671875 0 L 8.25 -15.734375 L 8.25 0 L 2.875 0 L 2.875 -25.203125 L 7.8125 -25.203125 L 18.875 -9.828125 Z M 18.875 -25.203125 "/></g></g></g><g fill="#292929" fill-opacity="1"><g transform="translate(353.066933, 65.823807)"><g><path d="M 11.234375 0.5 C 9.316406 0.5 7.625 0.15625 6.15625 -0.53125 C 4.695312 -1.226562 3.550781 -2.222656 2.71875 -3.515625 C 1.894531 -4.816406 1.484375 -6.367188 1.484375 -8.171875 L 6.984375 -8.171875 C 6.984375 -6.953125 7.410156 -6.046875 8.265625 -5.453125 C 9.117188 -4.867188 10.097656 -4.578125 11.203125 -4.578125 C 11.898438 -4.578125 12.550781 -4.691406 13.15625 -4.921875 C 13.769531 -5.148438 14.273438 -5.484375 14.671875 -5.921875 C 15.066406 -6.367188 15.265625 -6.90625 15.265625 -7.53125 C 15.265625 -8.175781 15.035156 -8.679688 14.578125 -9.046875 C 14.128906 -9.421875 13.519531 -9.726562 12.75 -9.96875 C 11.976562 -10.21875 11.140625 -10.445312 10.234375 -10.65625 C 9.296875 -10.875 8.332031 -11.140625 7.34375 -11.453125 C 6.363281 -11.765625 5.453125 -12.175781 4.609375 -12.6875 C 3.765625 -13.207031 3.09375 -13.90625 2.59375 -14.78125 C 2.09375 -15.65625 1.84375 -16.765625 1.84375 -18.109375 C 1.84375 -20.535156 2.660156 -22.398438 4.296875 -23.703125 C 5.941406 -25.015625 8.171875 -25.671875 10.984375 -25.671875 C 13.867188 -25.671875 16.101562 -24.945312 17.6875 -23.5 C 19.269531 -22.050781 20.0625 -20.078125 20.0625 -17.578125 L 14.65625 -17.578125 C 14.65625 -18.660156 14.269531 -19.457031 13.5 -19.96875 C 12.738281 -20.488281 11.851562 -20.75 10.84375 -20.75 C 9.957031 -20.75 9.140625 -20.554688 8.390625 -20.171875 C 7.648438 -19.785156 7.28125 -19.1875 7.28125 -18.375 C 7.28125 -17.769531 7.5 -17.289062 7.9375 -16.9375 C 8.382812 -16.59375 8.972656 -16.304688 9.703125 -16.078125 C 10.429688 -15.847656 11.242188 -15.628906 12.140625 -15.421875 C 13.097656 -15.171875 14.082031 -14.882812 15.09375 -14.5625 C 16.101562 -14.238281 17.039062 -13.800781 17.90625 -13.25 C 18.769531 -12.695312 19.46875 -11.960938 20 -11.046875 C 20.539062 -10.140625 20.8125 -8.988281 20.8125 -7.59375 C 20.8125 -5.769531 20.375 -4.257812 19.5 -3.0625 C 18.625 -1.863281 17.460938 -0.96875 16.015625 -0.375 C 14.578125 0.207031 12.984375 0.5 11.234375 0.5 Z M 11.234375 0.5 "/></g></g></g><g fill="#292929" fill-opacity="1"><g transform="translate(168.320211, 78.44593)"><g><path d="M 3.265625 -4.265625 L 3.265625 -3.765625 L 1.96875 -3.765625 L 1.96875 0 L 1.421875 0 L 1.421875 -3.765625 L 0.125 -3.765625 L 0.125 -4.265625 Z M 3.265625 -4.265625 "/></g></g></g><g fill="#292929" fill-opacity="1"><g transform="translate(174.360168, 78.44593)"><g><path d="M 3.0625 0 L 2.09375 -1.671875 L 1.109375 -1.671875 L 1.109375 0 L 0.578125 0 L 0.578125 -4.265625 L 2.203125 -4.265625 C 2.472656 -4.265625 2.710938 -4.207031 2.921875 -4.09375 C 3.128906 -3.988281 3.289062 -3.835938 3.40625 -3.640625 C 3.53125 -3.441406 3.59375 -3.21875 3.59375 -2.96875 C 3.59375 -2.664062 3.503906 -2.40625 3.328125 -2.1875 C 3.160156 -1.96875 2.9375 -1.816406 2.65625 -1.734375 L 3.671875 0 Z M 1.109375 -3.765625 L 1.109375 -2.171875 L 2.171875 -2.171875 C 2.429688 -2.171875 2.640625 -2.242188 2.796875 -2.390625 C 2.960938 -2.546875 3.046875 -2.738281 3.046875 -2.96875 C 3.046875 -3.195312 2.960938 -3.382812 2.796875 -3.53125 C 2.640625 -3.6875 2.429688 -3.765625 2.171875 -3.765625 Z M 1.109375 -3.765625 "/></g></g></g><g fill="#292929" fill-opacity="1"><g transform="translate(180.935933, 78.44593)"><g><path d="M 3.5625 0 L 3.140625 -1.03125 L 1.09375 -1.03125 L 0.671875 0 L 0.109375 0 L 1.84375 -4.265625 L 2.34375 -4.265625 L 4.140625 0 Z M 2.109375 -3.53125 L 1.296875 -1.515625 L 2.9375 -1.515625 Z M 2.109375 -3.53125 "/></g></g></g><g fill="#292929" fill-opacity="1"><g transform="translate(187.834396, 78.44593)"><g><path d="M 3.46875 -4.265625 L 3.984375 -4.265625 L 3.984375 0 L 3.53125 0 L 1.109375 -3.328125 L 1.109375 0 L 0.578125 0 L 0.578125 -4.265625 L 1.0625 -4.265625 L 3.46875 -0.96875 Z M 3.46875 -4.265625 "/></g></g></g><g fill="#292929" fill-opacity="1"><g transform="translate(195.049475, 78.44593)"><g><path d="M 1.859375 0.0625 C 1.546875 0.0625 1.269531 0.00390625 1.03125 -0.109375 C 0.789062 -0.222656 0.601562 -0.378906 0.46875 -0.578125 C 0.34375 -0.785156 0.28125 -1.03125 0.28125 -1.3125 L 0.828125 -1.3125 C 0.828125 -1.039062 0.921875 -0.832031 1.109375 -0.6875 C 1.304688 -0.539062 1.550781 -0.46875 1.84375 -0.46875 C 2.019531 -0.46875 2.179688 -0.492188 2.328125 -0.546875 C 2.472656 -0.609375 2.585938 -0.695312 2.671875 -0.8125 C 2.765625 -0.925781 2.8125 -1.054688 2.8125 -1.203125 C 2.8125 -1.367188 2.757812 -1.5 2.65625 -1.59375 C 2.5625 -1.6875 2.429688 -1.757812 2.265625 -1.8125 C 2.097656 -1.863281 1.925781 -1.910156 1.75 -1.953125 C 1.582031 -1.992188 1.414062 -2.035156 1.25 -2.078125 C 1.09375 -2.128906 0.945312 -2.195312 0.8125 -2.28125 C 0.675781 -2.363281 0.566406 -2.472656 0.484375 -2.609375 C 0.398438 -2.742188 0.359375 -2.914062 0.359375 -3.125 C 0.359375 -3.5 0.488281 -3.789062 0.75 -4 C 1.019531 -4.21875 1.375 -4.328125 1.8125 -4.328125 C 2.25 -4.328125 2.59375 -4.210938 2.84375 -3.984375 C 3.101562 -3.753906 3.234375 -3.445312 3.234375 -3.0625 L 2.703125 -3.0625 C 2.703125 -3.289062 2.613281 -3.472656 2.4375 -3.609375 C 2.269531 -3.742188 2.054688 -3.8125 1.796875 -3.8125 C 1.535156 -3.8125 1.316406 -3.753906 1.140625 -3.640625 C 0.972656 -3.523438 0.890625 -3.363281 0.890625 -3.15625 C 0.890625 -3 0.9375 -2.875 1.03125 -2.78125 C 1.132812 -2.695312 1.265625 -2.628906 1.421875 -2.578125 C 1.578125 -2.523438 1.75 -2.476562 1.9375 -2.4375 C 2.101562 -2.394531 2.269531 -2.347656 2.4375 -2.296875 C 2.601562 -2.242188 2.753906 -2.175781 2.890625 -2.09375 C 3.035156 -2.007812 3.148438 -1.894531 3.234375 -1.75 C 3.316406 -1.613281 3.359375 -1.4375 3.359375 -1.21875 C 3.359375 -0.945312 3.289062 -0.71875 3.15625 -0.53125 C 3.03125 -0.34375 2.851562 -0.195312 2.625 -0.09375 C 2.394531 0.0078125 2.140625 0.0625 1.859375 0.0625 Z M 1.859375 0.0625 "/></g></g></g><g fill="#292929" fill-opacity="1"><g transform="translate(201.339069, 78.44593)"><g><path d="M 2.109375 -4.265625 C 2.378906 -4.265625 2.617188 -4.203125 2.828125 -4.078125 C 3.046875 -3.960938 3.21875 -3.800781 3.34375 -3.59375 C 3.46875 -3.394531 3.53125 -3.164062 3.53125 -2.90625 C 3.53125 -2.644531 3.46875 -2.410156 3.34375 -2.203125 C 3.21875 -1.992188 3.046875 -1.828125 2.828125 -1.703125 C 2.617188 -1.585938 2.378906 -1.53125 2.109375 -1.53125 L 1.109375 -1.53125 L 1.109375 0 L 0.578125 0 L 0.578125 -4.265625 Z M 2.078125 -2.046875 C 2.335938 -2.046875 2.550781 -2.125 2.71875 -2.28125 C 2.894531 -2.445312 2.984375 -2.65625 2.984375 -2.90625 C 2.984375 -3.144531 2.894531 -3.34375 2.71875 -3.5 C 2.550781 -3.664062 2.335938 -3.75 2.078125 -3.75 L 1.109375 -3.75 L 1.109375 -2.046875 Z M 2.078125 -2.046875 "/></g></g></g><g fill="#292929" fill-opacity="1"><g transform="translate(207.707819, 78.44593)"><g><path d="M 2.515625 0.078125 C 2.203125 0.078125 1.90625 0.0195312 1.625 -0.09375 C 1.351562 -0.207031 1.117188 -0.363281 0.921875 -0.5625 C 0.722656 -0.757812 0.566406 -0.988281 0.453125 -1.25 C 0.347656 -1.519531 0.296875 -1.8125 0.296875 -2.125 C 0.296875 -2.445312 0.347656 -2.738281 0.453125 -3 C 0.566406 -3.269531 0.722656 -3.503906 0.921875 -3.703125 C 1.117188 -3.898438 1.351562 -4.054688 1.625 -4.171875 C 1.90625 -4.285156 2.203125 -4.34375 2.515625 -4.34375 C 2.847656 -4.34375 3.148438 -4.285156 3.421875 -4.171875 C 3.691406 -4.054688 3.925781 -3.898438 4.125 -3.703125 C 4.320312 -3.503906 4.476562 -3.269531 4.59375 -3 C 4.707031 -2.738281 4.765625 -2.445312 4.765625 -2.125 C 4.765625 -1.8125 4.707031 -1.519531 4.59375 -1.25 C 4.476562 -0.988281 4.320312 -0.757812 4.125 -0.5625 C 3.925781 -0.363281 3.691406 -0.207031 3.421875 -0.09375 C 3.148438 0.0195312 2.847656 0.078125 2.515625 0.078125 Z M 2.515625 -0.453125 C 2.847656 -0.453125 3.140625 -0.523438 3.390625 -0.671875 C 3.640625 -0.816406 3.835938 -1.015625 3.984375 -1.265625 C 4.128906 -1.523438 4.203125 -1.8125 4.203125 -2.125 C 4.203125 -2.445312 4.128906 -2.734375 3.984375 -2.984375 C 3.835938 -3.242188 3.640625 -3.445312 3.390625 -3.59375 C 3.140625 -3.738281 2.847656 -3.8125 2.515625 -3.8125 C 2.203125 -3.8125 1.914062 -3.738281 1.65625 -3.59375 C 1.40625 -3.445312 1.207031 -3.242188 1.0625 -2.984375 C 0.914062 -2.734375 0.84375 -2.445312 0.84375 -2.125 C 0.84375 -1.8125 0.914062 -1.523438 1.0625 -1.265625 C 1.207031 -1.015625 1.40625 -0.816406 1.65625 -0.671875 C 1.914062 -0.523438 2.203125 -0.453125 2.515625 -0.453125 Z M 2.515625 -0.453125 "/></g></g></g><g fill="#292929" fill-opacity="1"><g transform="translate(215.409992, 78.44593)"><g><path d="M 3.0625 0 L 2.09375 -1.671875 L 1.109375 -1.671875 L 1.109375 0 L 0.578125 0 L 0.578125 -4.265625 L 2.203125 -4.265625 C 2.472656 -4.265625 2.710938 -4.207031 2.921875 -4.09375 C 3.128906 -3.988281 3.289062 -3.835938 3.40625 -3.640625 C 3.53125 -3.441406 3.59375 -3.21875 3.59375 -2.96875 C 3.59375 -2.664062 3.503906 -2.40625 3.328125 -2.1875 C 3.160156 -1.96875 2.9375 -1.816406 2.65625 -1.734375 L 3.671875 0 Z M 1.109375 -3.765625 L 1.109375 -2.171875 L 2.171875 -2.171875 C 2.429688 -2.171875 2.640625 -2.242188 2.796875 -2.390625 C 2.960938 -2.546875 3.046875 -2.738281 3.046875 -2.96875 C 3.046875 -3.195312 2.960938 -3.382812 2.796875 -3.53125 C 2.640625 -3.6875 2.429688 -3.765625 2.171875 -3.765625 Z M 1.109375 -3.765625 "/></g></g></g><g fill="#292929" fill-opacity="1"><g transform="translate(221.985758, 78.44593)"><g><path d="M 3.265625 -4.265625 L 3.265625 -3.765625 L 1.96875 -3.765625 L 1.96875 0 L 1.421875 0 L 1.421875 -3.765625 L 0.125 -3.765625 L 0.125 -4.265625 Z M 3.265625 -4.265625 "/></g></g></g><g fill="#292929" fill-opacity="1"><g transform="translate(228.025716, 78.44593)"><g/></g></g><g fill="#292929" fill-opacity="1"><g transform="translate(232.275605, 78.44593)"><g><path d="M 3.4375 -4.265625 L 4.03125 -4.265625 L 2.328125 0 L 1.828125 0 L 0.109375 -4.265625 L 0.703125 -4.265625 L 2.078125 -0.796875 Z M 3.4375 -4.265625 "/></g></g></g><g fill="#292929" fill-opacity="1"><g transform="translate(239.082736, 78.44593)"><g><path d="M 1.109375 -0.515625 L 3.0625 -0.515625 L 3.0625 0 L 0.578125 0 L 0.578125 -4.265625 L 3 -4.265625 L 3 -3.765625 L 1.109375 -3.765625 L 1.109375 -2.4375 L 2.84375 -2.4375 L 2.84375 -1.9375 L 1.109375 -1.9375 Z M 1.109375 -0.515625 "/></g></g></g><g fill="#292929" fill-opacity="1"><g transform="translate(245.104426, 78.44593)"><g><path d="M 3.328125 -4.265625 L 3.859375 -4.265625 L 3.859375 0 L 3.328125 0 L 3.328125 -1.9375 L 1.109375 -1.9375 L 1.109375 0 L 0.578125 0 L 0.578125 -4.265625 L 1.109375 -4.265625 L 1.109375 -2.453125 L 3.328125 -2.453125 Z M 3.328125 -4.265625 "/></g></g></g><g fill="#292929" fill-opacity="1"><g transform="translate(252.197725, 78.44593)"><g><path d="M 0.578125 0 L 0.578125 -4.265625 L 1.109375 -4.265625 L 1.109375 0 Z M 0.578125 0 "/></g></g></g><g fill="#292929" fill-opacity="1"><g transform="translate(256.551114, 78.44593)"><g><path d="M 2.484375 0.0625 C 2.160156 0.0625 1.863281 0.0078125 1.59375 -0.09375 C 1.332031 -0.195312 1.101562 -0.347656 0.90625 -0.546875 C 0.707031 -0.742188 0.554688 -0.976562 0.453125 -1.25 C 0.347656 -1.519531 0.296875 -1.8125 0.296875 -2.125 C 0.296875 -2.445312 0.347656 -2.742188 0.453125 -3.015625 C 0.554688 -3.285156 0.707031 -3.519531 0.90625 -3.71875 C 1.101562 -3.914062 1.332031 -4.066406 1.59375 -4.171875 C 1.863281 -4.273438 2.160156 -4.328125 2.484375 -4.328125 C 2.804688 -4.328125 3.101562 -4.265625 3.375 -4.140625 C 3.65625 -4.015625 3.890625 -3.835938 4.078125 -3.609375 C 4.273438 -3.390625 4.414062 -3.128906 4.5 -2.828125 L 3.953125 -2.828125 C 3.835938 -3.128906 3.648438 -3.367188 3.390625 -3.546875 C 3.128906 -3.722656 2.828125 -3.8125 2.484375 -3.8125 C 2.160156 -3.8125 1.875 -3.738281 1.625 -3.59375 C 1.382812 -3.445312 1.191406 -3.25 1.046875 -3 C 0.910156 -2.75 0.84375 -2.457031 0.84375 -2.125 C 0.84375 -1.800781 0.910156 -1.515625 1.046875 -1.265625 C 1.191406 -1.015625 1.382812 -0.816406 1.625 -0.671875 C 1.875 -0.523438 2.160156 -0.453125 2.484375 -0.453125 C 2.835938 -0.453125 3.144531 -0.546875 3.40625 -0.734375 C 3.675781 -0.921875 3.863281 -1.175781 3.96875 -1.5 L 4.515625 -1.5 C 4.441406 -1.1875 4.304688 -0.910156 4.109375 -0.671875 C 3.910156 -0.429688 3.671875 -0.25 3.390625 -0.125 C 3.117188 0 2.816406 0.0625 2.484375 0.0625 Z M 2.484375 0.0625 "/></g></g></g><g fill="#292929" fill-opacity="1"><g transform="translate(263.930585, 78.44593)"><g><path d="M 1.109375 -0.5 L 2.984375 -0.5 L 2.984375 0 L 0.578125 0 L 0.578125 -4.265625 L 1.109375 -4.265625 Z M 1.109375 -0.5 "/></g></g></g><g fill="#292929" fill-opacity="1"><g transform="translate(269.702639, 78.44593)"><g><path d="M 1.109375 -0.515625 L 3.0625 -0.515625 L 3.0625 0 L 0.578125 0 L 0.578125 -4.265625 L 3 -4.265625 L 3 -3.765625 L 1.109375 -3.765625 L 1.109375 -2.4375 L 2.84375 -2.4375 L 2.84375 -1.9375 L 1.109375 -1.9375 Z M 1.109375 -0.515625 "/></g></g></g><g fill="#292929" fill-opacity="1"><g transform="translate(275.724329, 78.44593)"><g><path d="M 1.859375 0.0625 C 1.546875 0.0625 1.269531 0.00390625 1.03125 -0.109375 C 0.789062 -0.222656 0.601562 -0.378906 0.46875 -0.578125 C 0.34375 -0.785156 0.28125 -1.03125 0.28125 -1.3125 L 0.828125 -1.3125 C 0.828125 -1.039062 0.921875 -0.832031 1.109375 -0.6875 C 1.304688 -0.539062 1.550781 -0.46875 1.84375 -0.46875 C 2.019531 -0.46875 2.179688 -0.492188 2.328125 -0.546875 C 2.472656 -0.609375 2.585938 -0.695312 2.671875 -0.8125 C 2.765625 -0.925781 2.8125 -1.054688 2.8125 -1.203125 C 2.8125 -1.367188 2.757812 -1.5 2.65625 -1.59375 C 2.5625 -1.6875 2.429688 -1.757812 2.265625 -1.8125 C 2.097656 -1.863281 1.925781 -1.910156 1.75 -1.953125 C 1.582031 -1.992188 1.414062 -2.035156 1.25 -2.078125 C 1.09375 -2.128906 0.945312 -2.195312 0.8125 -2.28125 C 0.675781 -2.363281 0.566406 -2.472656 0.484375 -2.609375 C 0.398438 -2.742188 0.359375 -2.914062 0.359375 -3.125 C 0.359375 -3.5 0.488281 -3.789062 0.75 -4 C 1.019531 -4.21875 1.375 -4.328125 1.8125 -4.328125 C 2.25 -4.328125 2.59375 -4.210938 2.84375 -3.984375 C 3.101562 -3.753906 3.234375 -3.445312 3.234375 -3.0625 L 2.703125 -3.0625 C 2.703125 -3.289062 2.613281 -3.472656 2.4375 -3.609375 C 2.269531 -3.742188 2.054688 -3.8125 1.796875 -3.8125 C 1.535156 -3.8125 1.316406 -3.753906 1.140625 -3.640625 C 0.972656 -3.523438 0.890625 -3.363281 0.890625 -3.15625 C 0.890625 -3 0.9375 -2.875 1.03125 -2.78125 C 1.132812 -2.695312 1.265625 -2.628906 1.421875 -2.578125 C 1.578125 -2.523438 1.75 -2.476562 1.9375 -2.4375 C 2.101562 -2.394531 2.269531 -2.347656 2.4375 -2.296875 C 2.601562 -2.242188 2.753906 -2.175781 2.890625 -2.09375 C 3.035156 -2.007812 3.148438 -1.894531 3.234375 -1.75 C 3.316406 -1.613281 3.359375 -1.4375 3.359375 -1.21875 C 3.359375 -0.945312 3.289062 -0.71875 3.15625 -0.53125 C 3.03125 -0.34375 2.851562 -0.195312 2.625 -0.09375 C 2.394531 0.0078125 2.140625 0.0625 1.859375 0.0625 Z M 1.859375 0.0625 "/></g></g></g></svg>