<svg xmlns="http://www.w3.org/2000/svg" xmlns:xlink="http://www.w3.org/1999/xlink" width="500" zoomAndPan="magnify" viewBox="0 0 375 374.999991" height="500" preserveAspectRatio="xMidYMid meet" version="1.0"><defs><g/><clipPath id="5497af5961"><path d="M 31.617188 158 L 43 158 L 43 170 L 31.617188 170 Z M 31.617188 158 " clip-rule="nonzero"/></clipPath><clipPath id="87803bce36"><path d="M 130.125 76.007812 L 331.617188 76.007812 L 331.617188 298.996094 L 130.125 298.996094 Z M 130.125 76.007812 " clip-rule="nonzero"/></clipPath></defs><path fill="#004aad" d="M 116.011719 252.136719 L 156.273438 252.136719 C 159.109375 254.972656 162.152344 257.628906 165.351562 260.078125 C 172.175781 265.292969 179.730469 269.558594 187.863281 272.707031 C 195.980469 275.839844 204.671875 277.851562 213.730469 278.550781 C 213.960938 278.566406 214.203125 278.585938 214.449219 278.601562 C 214.921875 278.636719 215.394531 278.65625 215.882812 278.671875 C 216.339844 278.707031 216.808594 278.707031 217.265625 278.722656 C 217.753906 278.742188 218.226562 278.757812 218.699219 278.757812 C 219.171875 278.757812 219.644531 278.777344 220.117188 278.777344 C 220.605469 278.777344 221.09375 278.757812 221.585938 278.757812 C 222.074219 278.757812 222.566406 278.742188 223.054688 278.722656 C 223.335938 278.722656 223.613281 278.707031 223.875 278.6875 C 224.191406 278.6875 224.507812 278.671875 224.820312 278.65625 C 225.714844 278.601562 226.605469 278.550781 227.496094 278.480469 C 227.933594 278.445312 228.390625 278.410156 228.84375 278.355469 C 229.054688 278.339844 229.28125 278.320312 229.507812 278.285156 C 229.875 278.253906 230.242188 278.21875 230.59375 278.183594 C 231.363281 278.09375 232.132812 277.988281 232.882812 277.882812 C 233.113281 277.851562 233.320312 277.816406 233.550781 277.796875 C 233.863281 277.746094 234.195312 277.691406 234.511719 277.640625 C 235 277.570312 235.472656 277.5 235.945312 277.394531 C 236.398438 277.324219 236.855469 277.238281 237.308594 277.148438 C 237.710938 277.082031 238.113281 276.992188 238.515625 276.921875 C 238.796875 276.851562 239.074219 276.800781 239.355469 276.746094 C 240.074219 276.589844 240.808594 276.433594 241.507812 276.257812 C 241.945312 276.152344 242.382812 276.046875 242.820312 275.925781 C 242.855469 275.925781 242.890625 275.910156 242.941406 275.890625 C 243.359375 275.785156 243.761719 275.679688 244.183594 275.558594 C 244.636719 275.4375 245.074219 275.3125 245.53125 275.191406 C 245.984375 275.050781 246.421875 274.929688 246.875 274.789062 C 247.3125 274.648438 247.769531 274.507812 248.207031 274.367188 C 248.644531 274.230469 249.097656 274.089844 249.535156 273.933594 C 250.339844 273.652344 251.144531 273.371094 251.949219 273.058594 C 252.457031 272.882812 252.945312 272.691406 253.4375 272.496094 C 254.292969 272.164062 255.148438 271.816406 256.007812 271.449219 C 256.425781 271.273438 256.847656 271.082031 257.265625 270.886719 C 257.6875 270.714844 258.105469 270.519531 258.527344 270.328125 C 259.242188 269.980469 259.976562 269.628906 260.695312 269.28125 C 260.816406 269.226562 260.957031 269.15625 261.078125 269.085938 C 261.867188 268.683594 262.652344 268.265625 263.441406 267.84375 C 263.40625 267.808594 263.351562 267.757812 263.316406 267.722656 C 270.875 263.71875 277.78125 258.699219 283.886719 252.820312 C 283.972656 252.714844 284.0625 252.644531 284.148438 252.574219 C 301.183594 236.03125 311.765625 212.890625 311.765625 187.265625 C 311.765625 139.742188 275.335938 100.722656 228.863281 96.628906 C 228.460938 96.59375 228.058594 96.558594 227.65625 96.523438 C 227.253906 96.488281 226.832031 96.453125 226.414062 96.4375 C 226.359375 96.417969 226.308594 96.417969 226.238281 96.417969 C 225.921875 96.402344 225.609375 96.382812 225.292969 96.367188 C 224.085938 96.296875 222.878906 96.246094 221.65625 96.226562 C 221.148438 96.226562 220.640625 96.210938 220.117188 96.210938 C 219.46875 96.210938 218.839844 96.226562 218.191406 96.246094 C 217.5625 96.246094 216.933594 96.261719 216.304688 96.296875 C 215.621094 96.332031 214.9375 96.367188 214.257812 96.402344 C 213.730469 96.4375 213.207031 96.472656 212.683594 96.507812 C 212.558594 96.523438 212.457031 96.542969 212.332031 96.542969 C 211.949219 96.578125 211.546875 96.613281 211.160156 96.644531 C 211.039062 96.664062 210.914062 96.679688 210.792969 96.699219 C 210.566406 96.714844 210.355469 96.734375 210.144531 96.75 C 209.675781 96.804688 209.203125 96.855469 208.746094 96.925781 C 208.117188 96.996094 207.503906 97.082031 206.894531 97.171875 C 206.296875 97.257812 205.738281 97.347656 205.160156 97.433594 C 205.074219 97.449219 204.988281 97.46875 204.898438 97.484375 C 204.339844 97.574219 203.78125 97.679688 203.203125 97.785156 C 202.710938 97.871094 202.222656 97.976562 201.714844 98.082031 C 201.558594 98.117188 201.382812 98.132812 201.207031 98.1875 C 200.667969 98.289062 200.125 98.414062 199.582031 98.535156 C 186.988281 101.4375 175.375 106.949219 165.351562 114.46875 L 93.238281 114.46875 L 93.238281 125.574219 L 104.242188 125.574219 L 104.242188 136.613281 L 85.839844 136.613281 L 85.839844 136.578125 L 81.554688 136.578125 L 81.554688 142.105469 C 81.519531 142.4375 81.519531 142.75 81.554688 143.085938 L 81.554688 147.578125 L 86.488281 147.578125 C 86.730469 147.613281 86.960938 147.613281 87.222656 147.613281 C 87.46875 147.613281 87.710938 147.613281 87.957031 147.578125 L 195.347656 147.578125 C 195.382812 147.578125 195.417969 147.578125 195.453125 147.578125 C 195.472656 147.597656 195.488281 147.578125 195.507812 147.597656 L 195.542969 147.597656 C 195.578125 147.613281 195.613281 147.613281 195.648438 147.632812 L 195.664062 147.632812 C 195.75 147.667969 195.820312 147.703125 195.890625 147.773438 C 195.945312 147.808594 195.996094 147.859375 196.03125 147.910156 C 196.03125 147.910156 196.050781 147.910156 196.050781 147.929688 L 196.222656 147.929688 L 196.222656 201.503906 C 196.222656 201.539062 196.222656 201.589844 196.207031 201.644531 C 196.171875 201.871094 196.050781 202.046875 195.910156 202.183594 C 195.890625 202.183594 195.890625 202.183594 195.890625 202.183594 C 195.820312 202.238281 195.75 202.289062 195.664062 202.308594 L 195.648438 202.324219 C 195.613281 202.34375 195.578125 202.34375 195.542969 202.34375 L 195.523438 202.359375 L 195.507812 202.359375 C 195.472656 202.359375 195.4375 202.359375 195.402344 202.359375 C 195.382812 202.359375 195.367188 202.378906 195.347656 202.378906 L 193.390625 202.378906 L 193.390625 202.761719 L 82.675781 202.761719 L 82.585938 202.746094 L 81.46875 202.746094 C 81.433594 202.746094 81.414062 202.761719 81.378906 202.761719 L 75.1875 202.761719 L 75.1875 208.289062 C 75.152344 208.640625 75.152344 209.007812 75.1875 209.339844 L 75.1875 213.800781 L 80.121094 213.800781 C 80.347656 213.816406 80.59375 213.832031 80.855469 213.832031 C 81.082031 213.832031 81.34375 213.832031 81.589844 213.800781 L 104.484375 213.800781 C 102.632812 216.371094 101.546875 219.5 101.546875 222.894531 L 92.609375 222.894531 L 92.609375 233.929688 L 110.308594 233.929688 C 108.492188 232.8125 106.96875 231.253906 105.882812 229.402344 C 104.78125 227.476562 104.152344 225.253906 104.152344 222.894531 C 104.152344 219.34375 105.570312 216.144531 107.859375 213.800781 C 108.316406 213.328125 108.804688 212.890625 109.332031 212.503906 C 111.5 210.859375 114.210938 209.898438 117.132812 209.898438 C 117.324219 209.898438 117.515625 209.917969 117.707031 209.917969 C 120.417969 210.039062 122.902344 210.984375 124.914062 212.503906 C 125.089844 212.628906 125.246094 212.75 125.402344 212.890625 C 125.753906 213.167969 126.085938 213.484375 126.382812 213.800781 C 128.691406 216.125 130.109375 219.34375 130.109375 222.894531 C 130.109375 223.855469 130.003906 224.78125 129.8125 225.691406 C 129.515625 227.003906 129.042969 228.246094 128.378906 229.402344 C 127.625 230.660156 126.679688 231.8125 125.5625 232.742188 C 123.304688 234.699219 120.347656 235.871094 117.132812 235.871094 C 116.886719 235.871094 116.660156 235.871094 116.414062 235.855469 L 116.414062 243.042969 L 107.019531 243.042969 C 106.953125 243.0625 106.863281 243.078125 106.792969 243.078125 C 106.707031 243.078125 106.617188 243.0625 106.550781 243.042969 L 104.921875 243.042969 L 104.921875 252.136719 Z M 263.421875 222.894531 L 247.839844 222.894531 C 247.839844 219.554688 246.789062 216.441406 245.003906 213.902344 C 242.277344 210.054688 237.851562 207.484375 232.8125 207.308594 C 232.621094 207.308594 232.445312 207.308594 232.253906 207.308594 C 227.691406 207.308594 223.597656 209.269531 220.746094 212.398438 C 218.210938 215.164062 216.671875 218.855469 216.671875 222.894531 L 132.609375 222.894531 L 132.714844 222.894531 C 132.714844 219.5 131.628906 216.371094 129.792969 213.800781 L 206.296875 213.800781 L 206.296875 147.578125 L 232.675781 147.578125 C 234.511719 147.613281 236.3125 147.839844 238.042969 148.226562 C 249.605469 150.851562 258.226562 161.203125 258.226562 173.554688 L 258.226562 212.503906 C 261.097656 212.503906 263.421875 214.832031 263.421875 217.699219 Z M 240.980469 232.496094 C 240.824219 232.652344 240.667969 232.777344 240.511719 232.917969 C 238.304688 234.734375 235.492188 235.835938 232.410156 235.871094 C 232.410156 235.871094 232.410156 235.871094 232.394531 235.871094 L 232.253906 235.871094 C 227.460938 235.871094 223.265625 233.265625 221.027344 229.402344 C 220.921875 229.226562 220.832031 229.066406 220.746094 228.894531 C 219.800781 227.09375 219.277344 225.046875 219.277344 222.894531 C 219.277344 220.726562 219.800781 218.679688 220.746094 216.878906 C 222.914062 212.730469 227.253906 209.898438 232.253906 209.898438 C 232.605469 209.898438 232.972656 209.917969 233.304688 209.949219 C 238.359375 210.351562 242.609375 213.660156 244.359375 218.1875 C 244.933594 219.640625 245.25 221.234375 245.25 222.894531 C 245.25 226.691406 243.605469 230.117188 240.980469 232.496094 " fill-opacity="1" fill-rule="evenodd"/><path fill="#004aad" d="M 59.535156 136.542969 L 48.53125 136.542969 L 48.53125 147.578125 L 59.535156 147.578125 L 59.535156 136.542969 " fill-opacity="1" fill-rule="evenodd"/><g clip-path="url(#5497af5961)"><path fill="#004aad" d="M 31.617188 169.636719 L 42.636719 169.636719 L 42.636719 158.597656 L 31.617188 158.597656 L 31.617188 169.636719 " fill-opacity="1" fill-rule="evenodd"/></g><path fill="#004aad" d="M 53.167969 213.800781 L 64.1875 213.800781 L 64.1875 202.761719 L 53.167969 202.761719 L 53.167969 213.800781 " fill-opacity="1" fill-rule="evenodd"/><path fill="#004aad" d="M 123.621094 222.894531 C 123.621094 219.308594 120.714844 216.40625 117.132812 216.40625 C 113.546875 216.40625 110.640625 219.308594 110.640625 222.894531 C 110.640625 226.480469 113.546875 229.382812 117.132812 229.382812 C 120.714844 229.382812 123.621094 226.480469 123.621094 222.894531 " fill-opacity="1" fill-rule="evenodd"/><path fill="#004aad" d="M 82.238281 125.507812 L 82.238281 114.46875 L 81.292969 114.46875 L 81.03125 114.503906 L 75.1875 114.503906 L 75.1875 114.539062 L 71.21875 114.539062 L 71.21875 125.574219 L 82.238281 125.574219 L 82.238281 125.507812 " fill-opacity="1" fill-rule="evenodd"/><path fill="#004aad" d="M 53.640625 169.636719 L 79.980469 169.636719 L 79.980469 158.632812 L 53.640625 158.632812 L 53.640625 169.636719 " fill-opacity="1" fill-rule="evenodd"/><path fill="#004aad" d="M 236.730469 155.921875 C 236.347656 155.835938 235.980469 155.746094 235.59375 155.675781 C 234.527344 155.484375 233.410156 155.378906 232.253906 155.378906 L 214.082031 155.378906 L 214.082031 183.296875 L 250.445312 183.296875 L 250.445312 173.554688 C 250.445312 168.53125 248.398438 163.984375 245.109375 160.699219 C 242.835938 158.421875 239.949219 156.746094 236.730469 155.921875 " fill-opacity="1" fill-rule="evenodd"/><path fill="#004aad" d="M 234.964844 216.980469 C 234.351562 216.703125 233.6875 216.527344 233.007812 216.441406 C 232.988281 216.441406 232.988281 216.441406 232.972656 216.441406 C 232.832031 216.421875 232.691406 216.421875 232.550781 216.421875 C 232.445312 216.40625 232.359375 216.40625 232.253906 216.40625 C 228.667969 216.40625 225.765625 219.308594 225.765625 222.894531 C 225.765625 226.480469 228.667969 229.382812 232.253906 229.382812 C 234.652344 229.382812 236.714844 228.105469 237.851562 226.199219 C 238.429688 225.21875 238.761719 224.101562 238.761719 222.894531 C 238.761719 220.269531 237.203125 218.015625 234.964844 216.980469 " fill-opacity="1" fill-rule="evenodd"/><path fill="#004aad" d="M 70.519531 233.929688 L 81.554688 233.929688 L 81.554688 222.894531 L 70.519531 222.894531 L 70.519531 233.929688 " fill-opacity="1" fill-rule="evenodd"/><path fill="#004aad" d="M 91 191.726562 L 91 180.722656 L 68.945312 180.722656 L 68.945312 191.761719 L 91 191.761719 L 91 191.726562 " fill-opacity="1" fill-rule="evenodd"/><g clip-path="url(#87803bce36)"><path fill="#333333" d="M 331.617188 187.492188 C 331.617188 156.972656 319.304688 129.300781 299.382812 109.136719 L 299.453125 109.136719 L 297.984375 107.753906 L 296.988281 106.808594 C 296.359375 106.179688 295.710938 105.585938 295.046875 104.988281 C 295.046875 104.988281 295.027344 104.972656 295.011719 104.972656 C 294.015625 104.0625 293.015625 103.171875 291.984375 102.3125 C 288.925781 99.707031 285.722656 97.292969 282.417969 95.054688 C 281.332031 94.320312 280.214844 93.601562 279.113281 92.902344 C 279.078125 92.886719 279.058594 92.867188 279.042969 92.867188 C 277.378906 91.820312 275.703125 90.839844 273.988281 89.878906 C 270.59375 88.007812 267.113281 86.308594 263.546875 84.804688 C 263.527344 84.789062 263.492188 84.769531 263.476562 84.753906 C 262.304688 84.261719 261.113281 83.789062 259.925781 83.335938 C 259.332031 83.109375 258.71875 82.882812 258.105469 82.652344 C 258.070312 82.636719 258.054688 82.636719 258.035156 82.617188 C 256.828125 82.183594 255.605469 81.78125 254.378906 81.378906 C 253.121094 80.976562 251.863281 80.589844 250.601562 80.238281 C 250.164062 80.101562 249.726562 79.976562 249.289062 79.871094 C 248.835938 79.75 248.398438 79.628906 247.945312 79.503906 C 247.507812 79.402344 247.070312 79.277344 246.613281 79.171875 C 244.007812 78.542969 241.367188 78 238.707031 77.546875 C 238.429688 77.496094 238.148438 77.460938 237.867188 77.40625 C 237.605469 77.371094 237.34375 77.320312 237.082031 77.285156 C 236.609375 77.214844 236.15625 77.144531 235.683594 77.074219 C 235.386719 77.039062 235.089844 76.988281 234.773438 76.953125 C 234.335938 76.898438 233.898438 76.847656 233.460938 76.792969 C 233.023438 76.742188 232.585938 76.691406 232.132812 76.636719 C 231.640625 76.585938 231.152344 76.53125 230.644531 76.496094 C 230.261719 76.445312 229.875 76.410156 229.492188 76.390625 C 228.511719 76.304688 227.550781 76.234375 226.570312 76.183594 C 226.21875 76.164062 225.851562 76.148438 225.484375 76.128906 C 225.046875 76.113281 224.59375 76.078125 224.140625 76.078125 C 223.703125 76.042969 223.265625 76.042969 222.808594 76.023438 C 221.917969 76.007812 221.007812 75.988281 220.117188 75.988281 C 219.433594 75.988281 218.734375 76.007812 218.050781 76.023438 C 217.929688 76.023438 217.84375 76.023438 217.738281 76.023438 C 217.089844 76.042969 216.460938 76.042969 215.8125 76.078125 C 215.707031 76.078125 215.601562 76.078125 215.5 76.09375 C 214.886719 76.113281 214.257812 76.148438 213.644531 76.183594 C 213.503906 76.199219 213.382812 76.199219 213.257812 76.199219 C 212.683594 76.234375 212.105469 76.269531 211.546875 76.324219 C 211.300781 76.339844 211.039062 76.355469 210.792969 76.375 C 210.375 76.410156 209.988281 76.445312 209.585938 76.496094 C 209.289062 76.515625 209.007812 76.550781 208.730469 76.566406 C 208.273438 76.621094 207.800781 76.671875 207.332031 76.722656 C 206.875 76.777344 206.402344 76.828125 205.929688 76.882812 C 205.476562 76.953125 205.003906 77.003906 204.550781 77.074219 C 190.90625 78.964844 177.839844 83.371094 165.824219 90.121094 C 165.441406 90.332031 165.039062 90.558594 164.652344 90.785156 C 163.902344 91.222656 163.148438 91.679688 162.398438 92.132812 C 161.59375 92.625 160.789062 93.128906 159.984375 93.636719 C 159.6875 93.832031 159.40625 94.003906 159.109375 94.214844 C 158.617188 94.511719 158.148438 94.84375 157.675781 95.175781 C 157.605469 95.210938 157.550781 95.246094 157.5 95.28125 L 143.035156 100.214844 L 168.0625 100.214844 L 168.378906 100.023438 C 168.867188 99.726562 169.359375 99.445312 169.847656 99.164062 C 170.773438 98.621094 171.703125 98.117188 172.664062 97.609375 C 173.242188 97.292969 173.835938 96.996094 174.429688 96.699219 C 175.269531 96.261719 176.109375 95.859375 176.949219 95.472656 C 177.578125 95.175781 178.207031 94.878906 178.855469 94.601562 C 178.941406 94.546875 179.046875 94.496094 179.152344 94.460938 C 179.730469 94.214844 180.289062 93.953125 180.867188 93.726562 C 181.496094 93.445312 182.144531 93.199219 182.773438 92.9375 C 182.808594 92.921875 182.824219 92.921875 182.859375 92.902344 C 183.527344 92.640625 184.191406 92.394531 184.855469 92.132812 C 185.535156 91.890625 186.203125 91.660156 186.882812 91.417969 C 190.925781 90.015625 195.050781 88.878906 199.25 87.988281 C 199.25 87.988281 199.265625 87.988281 199.285156 87.988281 C 200.578125 87.707031 201.890625 87.464844 203.203125 87.253906 C 203.414062 87.203125 203.621094 87.167969 203.851562 87.132812 C 204.425781 87.042969 205.023438 86.957031 205.632812 86.871094 C 205.703125 86.851562 205.792969 86.835938 205.859375 86.835938 C 206.507812 86.746094 207.136719 86.660156 207.769531 86.589844 C 208.484375 86.5 209.203125 86.414062 209.917969 86.34375 C 210.480469 86.292969 211.039062 86.238281 211.617188 86.1875 C 212.683594 86.097656 213.765625 86.03125 214.851562 85.960938 C 215.359375 85.941406 215.847656 85.925781 216.355469 85.90625 C 216.671875 85.890625 216.984375 85.871094 217.300781 85.871094 C 217.703125 85.855469 218.121094 85.855469 218.523438 85.835938 C 219.050781 85.835938 219.574219 85.835938 220.117188 85.835938 C 220.851562 85.835938 221.585938 85.835938 222.300781 85.855469 C 223.019531 85.871094 223.71875 85.890625 224.4375 85.925781 C 224.488281 85.925781 224.542969 85.925781 224.609375 85.925781 C 225.328125 85.960938 226.027344 85.996094 226.726562 86.046875 C 227.445312 86.097656 228.144531 86.152344 228.863281 86.203125 C 246.894531 87.777344 264.316406 94.179688 279.078125 104.710938 C 279.6875 105.148438 280.300781 105.601562 280.914062 106.054688 C 280.949219 106.089844 280.964844 106.109375 281 106.125 C 282.171875 107 283.308594 107.894531 284.445312 108.835938 L 284.8125 109.136719 L 284.832031 109.136719 C 307.394531 127.796875 321.789062 155.992188 321.789062 187.492188 C 321.789062 224.539062 301.886719 257 272.203125 274.789062 L 272.1875 274.789062 L 271.851562 274.964844 C 267.832031 277.359375 263.648438 279.457031 259.363281 281.261719 C 256.617188 282.414062 253.855469 283.445312 251.023438 284.339844 C 249.816406 284.722656 248.609375 285.089844 247.382812 285.441406 C 245.828125 285.859375 244.269531 286.261719 242.695312 286.628906 C 242.554688 286.648438 242.433594 286.683594 242.3125 286.71875 C 241.945312 286.789062 241.59375 286.875 241.226562 286.945312 C 240.441406 287.121094 239.671875 287.277344 238.867188 287.417969 C 238.832031 287.417969 238.777344 287.433594 238.726562 287.433594 C 237.992188 287.59375 237.238281 287.714844 236.503906 287.835938 C 235.558594 287.976562 234.632812 288.117188 233.707031 288.257812 C 232.585938 288.398438 231.449219 288.519531 230.332031 288.640625 C 229.769531 288.695312 229.210938 288.765625 228.632812 288.800781 C 227.550781 288.886719 226.464844 288.972656 225.378906 289.027344 C 224.890625 289.042969 224.382812 289.0625 223.894531 289.097656 C 223.5625 289.097656 223.265625 289.113281 222.933594 289.113281 C 222.53125 289.132812 222.128906 289.132812 221.726562 289.148438 C 221.183594 289.148438 220.660156 289.148438 220.117188 289.148438 C 219.382812 289.148438 218.664062 289.148438 217.929688 289.132812 C 217.210938 289.113281 216.511719 289.097656 215.796875 289.0625 C 215.742188 289.0625 215.691406 289.0625 215.636719 289.0625 C 214.921875 289.027344 214.203125 288.992188 213.503906 288.9375 C 212.789062 288.886719 212.085938 288.832031 211.386719 288.78125 C 194.929688 287.347656 179.011719 281.890625 165.144531 272.96875 C 164.199219 272.359375 163.269531 271.746094 162.34375 271.097656 C 161.3125 270.382812 160.316406 269.664062 159.335938 268.929688 C 159.300781 268.910156 159.265625 268.894531 159.25 268.859375 C 158.652344 268.421875 158.078125 267.984375 157.5 267.53125 C 156.921875 267.074219 156.363281 266.621094 155.785156 266.164062 C 155.664062 266.0625 155.539062 265.957031 155.417969 265.851562 L 130.40625 265.851562 L 146.796875 271.429688 L 146.8125 271.429688 C 147.285156 271.851562 147.757812 272.269531 148.246094 272.671875 C 149.609375 273.828125 150.992188 274.945312 152.410156 276.03125 C 153.058594 276.519531 153.703125 277.011719 154.351562 277.484375 C 154.769531 277.796875 155.207031 278.09375 155.628906 278.410156 C 157.113281 279.457031 158.617188 280.472656 160.140625 281.46875 C 161.628906 282.414062 163.132812 283.34375 164.671875 284.214844 C 170.164062 287.363281 175.898438 290.058594 181.828125 292.226562 C 182.25 292.382812 182.6875 292.523438 183.105469 292.683594 C 183.578125 292.839844 184.050781 293.015625 184.539062 293.171875 C 185.238281 293.417969 185.9375 293.644531 186.640625 293.855469 C 186.847656 293.921875 187.042969 293.976562 187.234375 294.046875 C 188.039062 294.289062 188.824219 294.519531 189.628906 294.761719 C 191.394531 295.253906 193.179688 295.726562 194.964844 296.128906 C 197.65625 296.757812 200.402344 297.28125 203.167969 297.703125 C 203.621094 297.773438 204.078125 297.839844 204.550781 297.910156 C 204.96875 297.964844 205.390625 298.015625 205.808594 298.070312 C 206.125 298.121094 206.457031 298.15625 206.769531 298.191406 C 207.226562 298.261719 207.664062 298.296875 208.101562 298.347656 C 208.835938 298.4375 209.570312 298.488281 210.320312 298.558594 C 210.742188 298.59375 211.144531 298.628906 211.546875 298.664062 C 212.246094 298.714844 212.960938 298.769531 213.660156 298.804688 C 214.027344 298.820312 214.378906 298.855469 214.746094 298.855469 C 215.199219 298.890625 215.636719 298.910156 216.09375 298.910156 C 216.949219 298.945312 217.808594 298.976562 218.683594 298.976562 C 219.152344 298.996094 219.644531 298.996094 220.117188 298.996094 C 220.816406 298.996094 221.496094 298.976562 222.199219 298.976562 C 222.300781 298.976562 222.40625 298.976562 222.511719 298.960938 C 223.160156 298.945312 223.789062 298.945312 224.417969 298.910156 C 224.542969 298.910156 224.628906 298.910156 224.734375 298.890625 C 225.363281 298.875 225.976562 298.839844 226.605469 298.804688 C 226.726562 298.804688 226.851562 298.804688 226.972656 298.785156 C 227.550781 298.75 228.125 298.714844 228.6875 298.664062 C 228.949219 298.644531 229.210938 298.628906 229.457031 298.609375 C 229.859375 298.578125 230.261719 298.542969 230.664062 298.488281 C 230.941406 298.472656 231.222656 298.4375 231.503906 298.417969 C 231.976562 298.367188 232.429688 298.3125 232.902344 298.261719 C 233.375 298.207031 233.847656 298.15625 234.300781 298.085938 C 235.648438 297.929688 236.976562 297.738281 238.289062 297.507812 C 249.152344 295.742188 259.628906 292.382812 269.457031 287.46875 C 269.492188 287.46875 269.527344 287.453125 269.5625 287.433594 C 270.699219 286.859375 271.851562 286.261719 272.992188 285.652344 C 273.375 285.441406 273.761719 285.230469 274.144531 285.003906 C 274.738281 284.6875 275.316406 284.355469 275.894531 284.007812 C 276.539062 283.640625 277.207031 283.253906 277.835938 282.851562 C 278.238281 282.625 278.640625 282.378906 279.042969 282.117188 C 279.585938 281.769531 280.144531 281.417969 280.6875 281.066406 C 280.703125 281.066406 280.722656 281.050781 280.738281 281.03125 C 281.296875 280.664062 281.859375 280.296875 282.417969 279.929688 C 282.46875 279.894531 282.523438 279.84375 282.574219 279.808594 C 283.1875 279.390625 283.800781 278.96875 284.410156 278.550781 C 285.023438 278.113281 285.617188 277.675781 286.230469 277.21875 L 287 276.660156 L 289.535156 274.789062 L 289.414062 274.789062 C 315.125 254.34375 331.617188 222.804688 331.617188 187.492188 " fill-opacity="1" fill-rule="evenodd"/></g><g fill="#004aad" fill-opacity="1"><g transform="translate(232.42146, 147.914683)"><g><path d="M 6.90625 -2.34375 C 6.90625 -1.539062 6.609375 -0.921875 6.015625 -0.484375 C 5.421875 -0.0546875 4.585938 0.15625 3.515625 0.15625 C 2.378906 0.15625 1.492188 -0.0234375 0.859375 -0.390625 L 0.859375 -1.59375 C 1.265625 -1.382812 1.703125 -1.21875 2.171875 -1.09375 C 2.648438 -0.976562 3.109375 -0.921875 3.546875 -0.921875 C 4.222656 -0.921875 4.742188 -1.023438 5.109375 -1.234375 C 5.472656 -1.453125 5.65625 -1.785156 5.65625 -2.234375 C 5.65625 -2.566406 5.507812 -2.847656 5.21875 -3.078125 C 4.925781 -3.316406 4.363281 -3.597656 3.53125 -3.921875 C 2.726562 -4.222656 2.160156 -4.484375 1.828125 -4.703125 C 1.492188 -4.921875 1.242188 -5.171875 1.078125 -5.453125 C 0.910156 -5.734375 0.828125 -6.070312 0.828125 -6.46875 C 0.828125 -7.164062 1.109375 -7.710938 1.671875 -8.109375 C 2.242188 -8.515625 3.023438 -8.71875 4.015625 -8.71875 C 4.941406 -8.71875 5.84375 -8.53125 6.71875 -8.15625 L 6.265625 -7.109375 C 5.398438 -7.460938 4.617188 -7.640625 3.921875 -7.640625 C 3.304688 -7.640625 2.84375 -7.539062 2.53125 -7.34375 C 2.21875 -7.15625 2.0625 -6.890625 2.0625 -6.546875 C 2.0625 -6.316406 2.117188 -6.117188 2.234375 -5.953125 C 2.359375 -5.796875 2.550781 -5.644531 2.8125 -5.5 C 3.070312 -5.351562 3.570312 -5.144531 4.3125 -4.875 C 5.320312 -4.5 6.003906 -4.125 6.359375 -3.75 C 6.722656 -3.375 6.90625 -2.90625 6.90625 -2.34375 Z M 6.90625 -2.34375 "/></g></g></g></svg>